<?xml version="1.0" encoding="utf-8"?>
<!-- Generator: Adobe Illustrator 19.0.0, SVG Export Plug-In . SVG Version: 6.00 Build 0)  -->
<svg version="1.1" xmlns="http://www.w3.org/2000/svg" xmlns:xlink="http://www.w3.org/1999/xlink" x="0px" y="0px"
	 viewBox="0 0 2400 1020" style="enable-background:new 0 0 2400 1020;" xml:space="preserve">
<style type="text/css">
	.st0{fill:#5D5D5D;}
	.st1{fill:#5D5D5D;stroke:#5D5D5D;stroke-width:11;stroke-miterlimit:10;}
</style>
<g id="Layer_1">
	<g>
		<path class="st0" d="M1435,266c11.6,0,21-9.4,21-21c0-11.6-9.4-21-21-21s-21,9.4-21,21C1414,256.6,1423.4,266,1435,266z"/>
		<path class="st0" d="M966,266c11.6,0,21-9.4,21-21c0-11.6-9.4-21-21-21s-21,9.4-21,21C945,256.6,954.4,266,966,266z"/>
		<path class="st0" d="M966,794c11.6,0,21-9.4,21-21s-9.4-21-21-21s-21,9.4-21,21S954.4,794,966,794z"/>
		<path class="st0" d="M1435,794c11.6,0,21-9.4,21-21s-9.4-21-21-21s-21,9.4-21,21S1423.4,794,1435,794z"/>
		<path class="st0" d="M2245,1020 M2244.6,1020c40.5,0,79.5-17.6,110.2-49.2c29.3-30.2,45.2-71.6,45.2-116.2V693.8V321.3V160.5
			c0-43.8-15.6-83.1-45.5-113.8C2324.7,16.2,2286.6,0,2244.1,0c0,0,0,0-2083.9,0C116.9,0,76.7,16.6,47.6,46.8
			C17.1,78.3,0,118.7,0,160.5v160.8v372.6v160.8c0,42.6,17.6,85,47.8,116.2c30.2,31.1,71.5,49.2,112.7,49.2
			c2084.5,0,2084.5,0,2084.5,0 M2395,323.8l-119,56.1V8.8c28,6,53.9,20.2,75,41.9c28.8,29.6,44,67.6,44,109.8V323.8z M5,691.3
			l120-56.1v374.3c-27-7-53.2-21.7-73.6-42.8C22.1,936.5,5,895.7,5,854.6V691.3z M125,474v71h-21.9c-2.8,0-7.1-3.9-7.1-6.7v-61.6
			c0-2,2.9-2.8,7.1-2.8H125z M125,469h-21.9c-6,0-13.1,1.9-13.1,7.8v61.6c0,5.8,7.3,12.7,13.1,12.7H125v78.1L5,685.2V329.9L125,386
			V469z M196.6,510.5c0,15.7-4.7,30.5-14.3,44.5H130l0-89h52.1C191.4,478,196.6,494.4,196.6,510.5z M125,9.4v370.5L5,323.8V160.5
			c0-40.3,16.6-79.3,46.1-109.8C71.2,29.9,97,15.8,125,9.4z M160.5,1014c-10.1,0-20.5-1.1-30.5-3.2V561h55.3h0.6
			c10.3-15,16-34.4,16-52.2c0-17.2-5.5-33.6-16.4-48.5l-0.2-0.2l-1.3,0h-54V8.3C140,6.5,160,5,160,5c2084.1,0,2084.1,0,2084.1,0
			c9,0,17.9,1.3,26.9,2.8V459h-50.5l-0.1,0l-1.7-0.1c-10.7,14.7-16.1,30.8-16.1,48.4c0,17.7,5.8,37.7,16.3,51.7h0.7h51.4v452.6
			c-9,1.6-17.7,2.4-26.4,2.4C2244.6,1014,2244.6,1014,160.5,1014z M2271,554h-48.4c-9.6-14-14.5-29-14.5-44.5
			c0-16.1,5.1-32.5,14.2-44.5h48.7L2271,554z M2305,538.4c0,1.2-0.4,6.6-3.5,6.6H2276v-71h25.5c3.2,0,3.5,0.3,3.5,2.8V538.4z
			 M2276,551h25.5c5.6,0,8.5-6.5,8.5-12.6v-61.6c0-7.1-4.3-7.8-8.5-7.8H2276v-83l119-56.1v355.3l-119-56.1V551z M2276,1010.4V635.2
			l119,56.1v163.3c0,43.1-15.4,82.9-43.7,112C2329.6,989,2304,1004,2276,1010.4z"/>
		<path class="st0" d="M2030,427c99.8,0,181-81.2,181-181s-81.2-181-181-181c-99.8,0-181,81.2-181,181S1930.2,427,2030,427z
			 M2030,71.7c96.1,0,174.3,78.2,174.3,174.3s-78.2,174.3-174.3,174.3c-96.1,0-174.3-78.2-174.3-174.3S1933.9,71.7,2030,71.7z"/>
		<path class="st0" d="M2030,954c99.8,0,181-81.2,181-181s-81.2-181-181-181c-99.8,0-181,81.2-181,181S1930.2,954,2030,954z
			 M2030,598.7c96.1,0,174.3,78.2,174.3,174.3s-78.2,174.3-174.3,174.3c-96.1,0-174.3-78.2-174.3-174.3S1933.9,598.7,2030,598.7z"/>
		<path class="st0" d="M372,954c99.8,0,181-81.2,181-181s-81.2-181-181-181s-181,81.2-181,181S272.2,954,372,954z M372,598.7
			c96.1,0,174.3,78.2,174.3,174.3S468.1,947.3,372,947.3S197.7,869.1,197.7,773S275.9,598.7,372,598.7z"/>
		<path class="st0" d="M372,427c99.8,0,181-81.2,181-181S471.8,65,372,65s-181,81.2-181,181S272.2,427,372,427z M372,71.7
			c96.1,0,174.3,78.2,174.3,174.3S468.1,420.3,372,420.3S197.7,342.1,197.7,246S275.9,71.7,372,71.7z"/>
		<line class="st1" x1="1499.5" y1="5" x2="1499.5" y2="1014"/>
		<line class="st1" x1="900.5" y1="5" x2="900.5" y2="1014"/>
	</g>
</g>
</svg>

